<?xml version="1.0" standalone="no"?>
<!DOCTYPE svg PUBLIC "-//W3C//DTD SVG 20010904//EN"
 "http://www.w3.org/TR/2001/REC-SVG-20010904/DTD/svg10.dtd">
<svg version="1.0" xmlns="http://www.w3.org/2000/svg"
 width="209.000000pt" height="209.000000pt" viewBox="0 0 209.000000 209.000000"
 preserveAspectRatio="xMidYMid meet">
<metadata>
Created by potrace 1.11, written by Peter Selinger 2001-2013
</metadata>
<g transform="translate(0.000000,209.000000) scale(0.100000,-0.100000)"
fill="#000000" stroke="none">
<path d="M256 1058 c1 -568 2 -1038 3 -1043 1 -7 178 -10 524 -9 569 1 590 2
695 42 246 94 401 380 342 632 -34 147 -155 300 -292 369 -38 19 -68 35 -68
36 0 1 19 15 43 30 106 69 193 195 222 320 54 232 -63 489 -268 590 -126 61
-151 63 -701 65 l-501 1 1 -1033z"/>
</g>
</svg>
